<svg xmlns="http://www.w3.org/2000/svg" viewBox="0 0 120.4 132.75"><defs><style>.cls-1{fill:#feea3f;}.cls-2{fill:#fff;}.cls-3{fill:none;stroke:#6154a4;stroke-miterlimit:10;stroke-width:7px;}.cls-4{fill:#6154a4;}</style></defs><title>favicon</title><g id="Hexagon"><path class="cls-1" d="M50.05,2.72l-39.89,23A20.31,20.31,0,0,0,0,43.34V89.4A20.32,20.32,0,0,0,10.16,107l39.89,23a20.3,20.3,0,0,0,20.31,0l39.89-23A20.33,20.33,0,0,0,120.4,89.4V43.34a20.33,20.33,0,0,0-10.15-17.59l-39.89-23A20.3,20.3,0,0,0,50.05,2.72Z"/></g><g id="Inner_Circle" data-name="Inner Circle"><ellipse class="cls-2" cx="60.2" cy="65.87" rx="30" ry="30.5"/></g><g id="Arrows"><g id="Right"><line class="cls-3" x1="42.2" y1="75.87" x2="62.13" y2="75.87"/><polygon class="cls-4" points="59.07 86.34 77.2 75.87 59.07 65.4 59.07 86.34"/></g><g id="Left"><line class="cls-3" x1="76.2" y1="50.87" x2="56.27" y2="50.87"/><polygon class="cls-4" points="59.34 40.4 41.2 50.87 59.34 61.34 59.34 40.4"/></g></g></svg>