<?xml version="1.0" standalone="no"?>
<!DOCTYPE svg PUBLIC "-//W3C//DTD SVG 20010904//EN"
 "http://www.w3.org/TR/2001/REC-SVG-20010904/DTD/svg10.dtd">
<svg version="1.0" xmlns="http://www.w3.org/2000/svg"
 width="134.000000pt" height="134.000000pt" viewBox="0 0 134.000000 134.000000"
 preserveAspectRatio="xMidYMid meet">
<metadata>
Created by potrace 1.11, written by Peter Selinger 2001-2013
</metadata>
<g transform="translate(0.000000,134.000000) scale(0.100000,-0.100000)"
fill="#000000" stroke="none">
<path d="M625 1329 c-26 -5 -131 -58 -160 -79 -5 -4 -26 -17 -45 -28 -280
-158 -306 -177 -335 -239 -24 -49 -24 -569 -1 -625 25 -59 56 -82 276 -206 25
-13 77 -44 115 -67 176 -104 207 -105 380 -5 55 32 120 69 145 84 25 14 81 46
125 71 54 31 90 60 110 88 l30 42 3 293 c3 317 1 330 -54 385 -26 26 -442 269
-484 282 -33 11 -68 12 -105 4z"/>
</g>
</svg>
