<svg xmlns="http://www.w3.org/2000/svg" xmlns:xlink="http://www.w3.org/1999/xlink" width="1140" height="602.75"><rect width="1140" height="602.75" rx="5" ry="5" class="a"/><svg y="0%" x="0%"><circle cx="20" cy="20" r="6" fill="#ff5f58"/><circle cx="40" cy="20" r="6" fill="#ffbd2e"/><circle cx="60" cy="20" r="6" fill="#18c132"/></svg><svg height="542.75" viewBox="0 0 110 54.275" width="1100" x="15" xmlns="http://www.w3.org/2000/svg" xmlns:xlink="http://www.w3.org/1999/xlink" y="50"><style>@keyframes eu{0%{transform:translateX(0)}2.8%{transform:translateX(-110px)}2.9%{transform:translateX(-220px)}3.9%{transform:translateX(-440px)}9.2%{transform:translateX(-550px)}13.1%{transform:translateX(-660px)}15.6%{transform:translateX(-770px)}17.6%{transform:translateX(-880px)}20%{transform:translateX(-990px)}21.8%{transform:translateX(-1100px)}23.3%{transform:translateX(-1210px)}25.1%{transform:translateX(-1320px)}27%{transform:translateX(-1430px)}29.2%{transform:translateX(-1540px)}31.7%{transform:translateX(-1650px)}34.2%{transform:translateX(-1760px)}35.6%{transform:translateX(-1870px)}41%{transform:translateX(-2200px)}45.2%{transform:translateX(-2420px)}45.6%{transform:translateX(-2860px)}45.8%{transform:translateX(-3740px)}45.9%{transform:translateX(-4180px)}96.1%{transform:translateX(-4400px)}96.2%{transform:translateX(-4620px)}97.3%{transform:translateX(-4840px)}to{transform:translateX(-4950px)}}.a{fill:#282d35}.f{fill:#71bef2;font-weight:700}.h{fill:#b9bfca}.i{fill:#b9c0cb}.j{fill:#a8cc8c}.k{fill:#d290e4}.G{fill:#74c8eb}.H{fill:#74c6eb}.I{fill:#74c3eb}.J{fill:#74c0eb}.K{fill:#74beeb}.L{fill:#74bbeb}.M{fill:#74b8eb}.N{fill:#74b5eb}.O{fill:#74b3eb}.P{fill:#74b0eb}.Q{fill:#74adeb}.R{fill:#74abeb}.S{fill:#74a8eb}.T{fill:#74a5eb}.U{fill:#74a2eb}.V{fill:#74a0eb}.W{fill:#749deb}.X{fill:#749aeb}.Y{fill:#7498eb}.Z{fill:#7495eb}.aa{fill:#7492eb}.ab{fill:#7490eb}.ac{fill:#748deb}.ad{fill:#748aeb}.ae{fill:#7487eb}.af{fill:#7485eb}.ag{fill:#7482eb}.ah{fill:#747feb}.ai{fill:#747deb}.aj{fill:#747aeb}.ak{fill:#7477eb}.al{fill:#7475eb}.am{fill:#7674eb}.an{fill:#7974eb}.ao{fill:#7c74eb}.ap{fill:#7e74eb}.aq{fill:#8174eb}.ar{fill:#8474eb}.as{fill:#8674eb}.at{fill:#8974eb}.au{fill:#8c74eb}.av{fill:#8f74eb}.aL{fill:#ba74eb}.aM{fill:#bd74eb}.aN{fill:#bf74eb}.aO{fill:#c274eb}.aP{fill:#c574eb}.aQ{fill:#c774eb}.aR{fill:#ca74eb}.aS{fill:#cd74eb}.aT{fill:#d074eb}.aU{fill:#d274eb}.aV{fill:#d574eb}.aW{fill:#d874eb}.aX{fill:#da74eb}.aY{fill:#dd74eb}.aZ{fill:#e074eb}.ba{fill:#e374eb}.bb{fill:#e574eb}.bc{fill:#e874eb}.bd{fill:#eb74eb}.be{fill:#eb74e9}.bf{fill:#eb74e7}.bg{fill:#eb74e4}.bh{fill:#eb74e1}.bT{fill:#ec747a}.bU{fill:#ec7478}.bV{fill:#ec7475}.bW{fill:#ec7674}.bX{fill:#ec7974}.bY{fill:#ec7b74}.bZ{fill:#ec7e74}.ca{fill:#ec8174}.cb{fill:#ec8374}.cc{fill:#ec8674}.cd{fill:#ec8974}.ce{fill:#ec8c74}.cf{fill:#ec8e74}.cg{fill:#ec9174}.ch{fill:#ec9474}.ci{fill:#ec9774}.cj{fill:#ec9974}.ck{fill:#ec9c74}.cl{fill:#ec9f74}.cm{fill:#eca174}.cn{fill:#eca474}.co{fill:#eca774}.cp{fill:#ecaa74}.cq{fill:#ecac74}.cr{fill:#ecaf74}.cs{fill:#ecb274}.ct{fill:#ecb474}.cu{fill:#ecb774}.cv{fill:#ecba74}.cw{fill:#ecbd74}.cx{fill:#ecbf74}.cy{fill:#ecc274}.cz{fill:#ecc574}.cA{fill:#ecc774}.cB{fill:#ecca74}.cC{fill:#eccd74}.cD{fill:#ecd074}.cE{fill:#ecd274}.cF{fill:#ecd574}.cG{fill:#ecd874}.cH{fill:#ecda74}.cI{fill:#ecdd74}.cT{fill:#dcec74}.cU{fill:#daec74}.cV{fill:#d7ec74}.cW{fill:#d4ec74}.cX{fill:#d1ec74}.cY{fill:#cfec74}.cZ{fill:#ccec74}.da{fill:#c9ec74}.db{fill:#c7ec74}.dc{fill:#c4ec74}.dd{fill:#c1ec74}.de{fill:#beec74}.df{fill:#bcec74}.dg{fill:#b9ec74}.dh{fill:#b6ec74}.di{fill:#b4ec74}.dj{fill:#b1ec74}.dk{fill:#aeec74}.dl{fill:#abec74}.dm{fill:#a9ec74}.dn{fill:#a6ec74}.do{fill:#a3ec74}.dp{fill:#a1ec74}.dq{fill:#9eec74}.dr{fill:#9bec74}.ds{fill:#98ec74}.dt{fill:#96ec74}.du{fill:#93ec74}.dv{fill:#90ec74}.dw{fill:#8eec74}.dx{fill:#8bec74}.dy{fill:#88ec74}.dz{fill:#85ec74}.dA{fill:#83ec74}.dB{fill:#80ec74}.dC{fill:#7dec74}.dD{fill:#7bec74}.dE{fill:#78ec74}.dF{fill:#75ec74}.dG{fill:#74ec76}.dH{fill:#74ec78}.dI{fill:#74ec7b}.dJ{fill:#74ec7e}.dK{fill:#74ec81}.dL{fill:#74ec83}.dM{fill:#74ec86}.dN{fill:#74ec89}.dO{fill:#74ec8b}.dP{fill:#74ec8e}.dQ{fill:#74ec91}.dR{fill:#74ec94}.dS{fill:#74ec96}.dT{fill:#74ec99}.dU{fill:#74ec9c}.dV{fill:#74ec9e}.dW{fill:#74eca1}.dX{fill:#74eca4}.dY{fill:#74eca7}.dZ{fill:#74eca9}.ea{fill:#74ecac}.eb{fill:#74ecaf}.ec{fill:#74ecb2}.ed{fill:#74ecb4}.ee{fill:#74ecb7}.ef{fill:#74ecba}.eg{fill:#74ecbc}.eh{fill:#74ecbf}.ei{fill:#74ecc2}.ej{fill:#74ecc5}.eq{fill:#b9c0cb;font-weight:700}.er{fill:#66c2cd}</style><g font-size="1.67" font-family="Monaco,Consolas,Menlo,'Bitstream Vera Sans Mono','Powerline Symbols',monospace"><defs><symbol id="1"><text y="1.67" class="f">~</text><text x="108.216" y="1.67" fill="#e88388" font-weight="700">⍉</text></symbol><symbol id="2"><text y="1.67" class="h">▶</text></symbol><symbol id="3"><text y="1.67" class="h">▶</text><text x="2.004" y="1.67" class="i">star-transfer</text></symbol><symbol id="4"><text y="1.67" class="j">✔</text><text x="2.004" y="1.67" class="i">Connected</text><text x="12.024" y="1.67" class="i">to</text><text x="15.03" y="1.67" class="i">WiFi.</text></symbol><symbol id="5"><text x="7.014" y="1.67" class="k">╭───────────────────────────────────────────────────────────────────────────────────────────────╮</text></symbol><symbol id="6"><text x="7.014" y="1.67" class="k">│</text><text x="11.022" y="1.67" fill="#74ebd5">_</text><text x="12.024" y="1.67" fill="#74ebd8">_</text><text x="13.026" y="1.67" fill="#74ebda">_</text><text x="14.028" y="1.67" fill="#74ebdd">_</text><text x="16.032" y="1.67" fill="#74ebe0">_</text><text x="18.036" y="1.67" fill="#74ebe3">_</text><text x="22.044" y="1.67" fill="#74ebe5">_</text><text x="26.052" y="1.67" fill="#74ebe8">_</text><text x="34.068" y="1.67" fill="#74ebeb">_</text><text x="42.084" y="1.67" fill="#74e9eb">_</text><text x="43.086" y="1.67" fill="#74e6eb">_</text><text x="44.088" y="1.67" fill="#74e3eb">_</text><text x="45.09" y="1.67" fill="#74e1eb">_</text><text x="48.096" y="1.67" fill="#74deeb">_</text><text x="64.128" y="1.67" fill="#74dbeb">_</text><text x="65.13" y="1.67" fill="#74d9eb">_</text><text x="66.132" y="1.67" fill="#74d6eb">_</text><text x="67.134" y="1.67" fill="#74d3eb">_</text><text x="68.136" y="1.67" fill="#74d0eb">_</text><text x="90.18" y="1.67" fill="#74ceeb">_</text><text x="91.182" y="1.67" fill="#74cbeb">_</text><text x="103.206" y="1.67" class="k">│</text></symbol><symbol id="7"><text x="7.014" y="1.67" class="k">│</text><text x="10.02" y="1.67" class="G">/</text><text x="12.024" y="1.67" class="H">_</text><text x="13.026" y="1.67" class="I">_</text><text x="14.028" y="1.67" class="J">_</text><text x="15.03" y="1.67" class="K">(</text><text x="16.032" y="1.67" class="L">_</text><text x="17.034" y="1.67" class="M">)</text><text x="19.038" y="1.67" class="N">|</text><text x="20.04" y="1.67" class="O">_</text><text x="21.042" y="1.67" class="P">|</text><text x="23.046" y="1.67" class="Q">|</text><text x="25.05" y="1.67" class="R">|</text><text x="27.054" y="1.67" class="S">|</text><text x="28.056" y="1.67" class="T">_</text><text x="32.064" y="1.67" class="U">_</text><text x="33.066" y="1.67" class="V">|</text><text x="35.07" y="1.67" class="W">|</text><text x="36.072" y="1.67" class="X">_</text><text x="37.074" y="1.67" class="Y">_</text><text x="41.082" y="1.67" class="Z">/</text><text x="43.086" y="1.67" class="aa">_</text><text x="44.088" y="1.67" class="ab">_</text><text x="45.09" y="1.67" class="ac">_</text><text x="46.092" y="1.67" class="ad">|</text><text x="47.094" y="1.67" class="ae">|</text><text x="49.098" y="1.67" class="af">|</text><text x="50.1" y="1.67" class="ag">_</text><text x="52.104" y="1.67" class="ah">_</text><text x="53.106" y="1.67" class="ai">_</text><text x="55.11" y="1.67" class="aj">_</text><text x="57.114" y="1.67" class="ak">_</text><text x="59.118" y="1.67" class="al">_</text><text x="60.12" y="1.67" class="am">_</text><text x="63.126" y="1.67" class="an">|</text><text x="64.128" y="1.67" class="ao">_</text><text x="68.136" y="1.67" class="ap">_</text><text x="69.138" y="1.67" class="aq">|</text><text x="71.142" y="1.67" class="ar">_</text><text x="72.144" y="1.67" class="as">_</text><text x="74.148" y="1.67" class="at">_</text><text x="75.15" y="1.67" class="au">_</text><text x="77.154" y="1.67" class="av">_</text><text x="79.158" y="1.67" fill="#9174eb">_</text><text x="81.162" y="1.67" fill="#9474eb">_</text><text x="82.164" y="1.67" fill="#9774eb">_</text><text x="85.17" y="1.67" fill="#9974eb">_</text><text x="86.172" y="1.67" fill="#9c74eb">_</text><text x="87.174" y="1.67" fill="#9f74eb">_</text><text x="89.178" y="1.67" fill="#a174eb">/</text><text x="91.182" y="1.67" fill="#a474eb">_</text><text x="92.184" y="1.67" fill="#a774eb">|</text><text x="94.188" y="1.67" fill="#aa74eb">_</text><text x="95.19" y="1.67" fill="#ac74eb">_</text><text x="96.192" y="1.67" fill="#af74eb">_</text><text x="98.196" y="1.67" fill="#b274eb">_</text><text x="100.2" y="1.67" fill="#b474eb">_</text><text x="101.202" y="1.67" fill="#b774eb">_</text><text x="103.206" y="1.67" class="k">│</text></symbol><symbol id="8"><text x="7.014" y="1.67" class="k">│</text><text x="9.018" y="1.67" class="aL">|</text><text x="11.022" y="1.67" class="aM">|</text><text x="14.028" y="1.67" class="aN">_</text><text x="15.03" y="1.67" class="aO">|</text><text x="17.034" y="1.67" class="aP">|</text><text x="19.038" y="1.67" class="aQ">_</text><text x="20.04" y="1.67" class="aR">_</text><text x="21.042" y="1.67" class="aS">|</text><text x="23.046" y="1.67" class="aT">|</text><text x="24.048" y="1.67" class="aU">_</text><text x="25.05" y="1.67" class="aV">|</text><text x="27.054" y="1.67" class="aW">|</text><text x="29.058" y="1.67" class="aX">|</text><text x="31.062" y="1.67" class="aY">|</text><text x="33.066" y="1.67" class="aZ">|</text><text x="35.07" y="1.67" class="ba">&apos;</text><text x="36.072" y="1.67" class="bb">_</text><text x="38.076" y="1.67" class="bc">\</text><text x="41.082" y="1.67" class="bd">\</text><text x="42.084" y="1.67" class="be">_</text><text x="43.086" y="1.67" class="bf">_</text><text x="44.088" y="1.67" class="bg">_</text><text x="46.092" y="1.67" class="bh">\</text><text x="47.094" y="1.67" fill="#eb74de">|</text><text x="49.098" y="1.67" fill="#eb74dc">_</text><text x="50.1" y="1.67" fill="#eb74d9">_</text><text x="51.102" y="1.67" fill="#eb74d6">/</text><text x="53.106" y="1.67" fill="#eb74d4">_</text><text x="54.108" y="1.67" fill="#eb74d1">`</text><text x="56.112" y="1.67" fill="#eb74ce">|</text><text x="58.116" y="1.67" fill="#eb74cc">&apos;</text><text x="59.118" y="1.67" fill="#eb74c9">_</text><text x="60.12" y="1.67" fill="#eb74c6">_</text><text x="61.122" y="1.67" fill="#eb74c3">|</text><text x="65.13" y="1.67" fill="#eb74c1">|</text><text x="67.134" y="1.67" fill="#eb74be">|</text><text x="68.136" y="1.67" fill="#eb74bb">|</text><text x="70.14" y="1.67" fill="#eb74b9">&apos;</text><text x="71.142" y="1.67" fill="#eb74b6">_</text><text x="72.144" y="1.67" fill="#eb74b3">_</text><text x="73.146" y="1.67" fill="#eb74b0">/</text><text x="75.15" y="1.67" fill="#eb74ae">_</text><text x="76.152" y="1.67" fill="#eb74ab">`</text><text x="78.156" y="1.67" fill="#eb74a8">|</text><text x="80.16" y="1.67" fill="#eb74a6">&apos;</text><text x="81.162" y="1.67" fill="#eb74a3">_</text><text x="83.166" y="1.67" fill="#eb74a0">\</text><text x="84.168" y="1.67" fill="#eb749d">/</text><text x="86.172" y="1.67" fill="#eb749b">_</text><text x="87.174" y="1.67" fill="#eb7498">_</text><text x="88.176" y="1.67" fill="#eb7495">|</text><text x="90.18" y="1.67" fill="#eb7493">|</text><text x="91.182" y="1.67" fill="#eb7490">_</text><text x="93.186" y="1.67" fill="#eb748d">/</text><text x="95.19" y="1.67" fill="#eb748a">_</text><text x="97.194" y="1.67" fill="#eb7488">\</text><text x="99.198" y="1.67" fill="#eb7485">&apos;</text><text x="100.2" y="1.67" fill="#eb7482">_</text><text x="101.202" y="1.67" fill="#eb7480">_</text><text x="102.204" y="1.67" fill="#ec747d">|</text><text x="103.206" y="1.67" class="k">│</text></symbol><symbol id="9"><text x="7.014" y="1.67" class="k">│</text><text x="9.018" y="1.67" class="bT">|</text><text x="11.022" y="1.67" class="bU">|</text><text x="12.024" y="1.67" class="bV">_</text><text x="13.026" y="1.67" class="bW">|</text><text x="15.03" y="1.67" class="bX">|</text><text x="17.034" y="1.67" class="bY">|</text><text x="19.038" y="1.67" class="bZ">|</text><text x="20.04" y="1.67" class="ca">_</text><text x="21.042" y="1.67" class="cb">|</text><text x="24.048" y="1.67" class="cc">_</text><text x="27.054" y="1.67" class="cd">|</text><text x="29.058" y="1.67" class="ce">|</text><text x="30.06" y="1.67" class="cf">_</text><text x="31.062" y="1.67" class="cg">|</text><text x="33.066" y="1.67" class="ch">|</text><text x="35.07" y="1.67" class="ci">|</text><text x="36.072" y="1.67" class="cj">_</text><text x="37.074" y="1.67" class="ck">)</text><text x="39.078" y="1.67" class="cl">|</text><text x="42.084" y="1.67" class="cm">_</text><text x="43.086" y="1.67" class="cn">_</text><text x="44.088" y="1.67" class="co">_</text><text x="45.09" y="1.67" class="cp">)</text><text x="47.094" y="1.67" class="cq">|</text><text x="49.098" y="1.67" class="cr">|</text><text x="50.1" y="1.67" class="cs">|</text><text x="52.104" y="1.67" class="ct">(</text><text x="53.106" y="1.67" class="cu">_</text><text x="54.108" y="1.67" class="cv">|</text><text x="56.112" y="1.67" class="cw">|</text><text x="58.116" y="1.67" class="cx">|</text><text x="65.13" y="1.67" class="cy">|</text><text x="67.134" y="1.67" class="cz">|</text><text x="68.136" y="1.67" class="cA">|</text><text x="70.14" y="1.67" class="cB">|</text><text x="72.144" y="1.67" class="cC">|</text><text x="74.148" y="1.67" class="cD">(</text><text x="75.15" y="1.67" class="cE">_</text><text x="76.152" y="1.67" class="cF">|</text><text x="78.156" y="1.67" class="cG">|</text><text x="80.16" y="1.67" class="cH">|</text><text x="82.164" y="1.67" class="cI">|</text><text x="84.168" y="1.67" fill="#ece074">\</text><text x="85.17" y="1.67" fill="#ece374">_</text><text x="86.172" y="1.67" fill="#ece574">_</text><text x="88.176" y="1.67" fill="#ece874">\</text><text x="91.182" y="1.67" fill="#eceb74">_</text><text x="92.184" y="1.67" fill="#eaec74">|</text><text x="95.19" y="1.67" fill="#e7ec74">_</text><text x="96.192" y="1.67" fill="#e4ec74">_</text><text x="97.194" y="1.67" fill="#e2ec74">/</text><text x="99.198" y="1.67" fill="#dfec74">|</text><text x="103.206" y="1.67" class="k">│</text></symbol><symbol id="10"><text x="7.014" y="1.67" class="k">│</text><text x="10.02" y="1.67" class="cT">\</text><text x="11.022" y="1.67" class="cU">_</text><text x="12.024" y="1.67" class="cV">_</text><text x="13.026" y="1.67" class="cW">_</text><text x="14.028" y="1.67" class="cX">_</text><text x="15.03" y="1.67" class="cY">|</text><text x="16.032" y="1.67" class="cZ">_</text><text x="17.034" y="1.67" class="da">|</text><text x="18.036" y="1.67" class="db">\</text><text x="19.038" y="1.67" class="dc">_</text><text x="20.04" y="1.67" class="dd">_</text><text x="21.042" y="1.67" class="de">|</text><text x="22.044" y="1.67" class="df">_</text><text x="23.046" y="1.67" class="dg">|</text><text x="25.05" y="1.67" class="dh">|</text><text x="26.052" y="1.67" class="di">_</text><text x="27.054" y="1.67" class="dj">|</text><text x="28.056" y="1.67" class="dk">\</text><text x="29.058" y="1.67" class="dl">_</text><text x="30.06" y="1.67" class="dm">_</text><text x="31.062" y="1.67" class="dn">,</text><text x="32.064" y="1.67" class="do">_</text><text x="33.066" y="1.67" class="dp">|</text><text x="34.068" y="1.67" class="dq">_</text><text x="35.07" y="1.67" class="dr">.</text><text x="36.072" y="1.67" class="ds">_</text><text x="37.074" y="1.67" class="dt">_</text><text x="38.076" y="1.67" class="du">/</text><text x="41.082" y="1.67" class="dv">|</text><text x="42.084" y="1.67" class="dw">_</text><text x="43.086" y="1.67" class="dx">_</text><text x="44.088" y="1.67" class="dy">_</text><text x="45.09" y="1.67" class="dz">_</text><text x="46.092" y="1.67" class="dA">/</text><text x="48.096" y="1.67" class="dB">\</text><text x="49.098" y="1.67" class="dC">_</text><text x="50.1" y="1.67" class="dD">_</text><text x="51.102" y="1.67" class="dE">\</text><text x="52.104" y="1.67" class="dF">_</text><text x="53.106" y="1.67" class="dG">_</text><text x="54.108" y="1.67" class="dH">,</text><text x="55.11" y="1.67" class="dI">_</text><text x="56.112" y="1.67" class="dJ">|</text><text x="57.114" y="1.67" class="dK">_</text><text x="58.116" y="1.67" class="dL">|</text><text x="65.13" y="1.67" class="dM">|</text><text x="66.132" y="1.67" class="dN">_</text><text x="67.134" y="1.67" class="dO">|</text><text x="68.136" y="1.67" class="dP">|</text><text x="69.138" y="1.67" class="dQ">_</text><text x="70.14" y="1.67" class="dR">|</text><text x="73.146" y="1.67" class="dS">\</text><text x="74.148" y="1.67" class="dT">_</text><text x="75.15" y="1.67" class="dU">_</text><text x="76.152" y="1.67" class="dV">,</text><text x="77.154" y="1.67" class="dW">_</text><text x="78.156" y="1.67" class="dX">|</text><text x="79.158" y="1.67" class="dY">_</text><text x="80.16" y="1.67" class="dZ">|</text><text x="82.164" y="1.67" class="ea">|</text><text x="83.166" y="1.67" class="eb">_</text><text x="84.168" y="1.67" class="ec">|</text><text x="85.17" y="1.67" class="ed">_</text><text x="86.172" y="1.67" class="ee">_</text><text x="87.174" y="1.67" class="ef">_</text><text x="88.176" y="1.67" class="eg">/</text><text x="89.178" y="1.67" class="eh">_</text><text x="90.18" y="1.67" class="ei">|</text><text x="93.186" y="1.67" class="ej">\</text><text x="94.188" y="1.67" fill="#74ecc7">_</text><text x="95.19" y="1.67" fill="#74ecca">_</text><text x="96.192" y="1.67" fill="#74eccd">_</text><text x="97.194" y="1.67" fill="#74ecd0">|</text><text x="98.196" y="1.67" fill="#74ecd2">_</text><text x="99.198" y="1.67" fill="#74ecd5">|</text><text x="103.206" y="1.67" class="k">│</text></symbol><symbol id="11"><text x="7.014" y="1.67" class="k">│</text><text x="103.206" y="1.67" class="k">│</text></symbol><symbol id="12"><text x="7.014" y="1.67" class="k">╰───────────────────────────────────────────────────────────────────────────────────────────────╯</text></symbol><symbol id="13"><text y="1.67" class="j">?</text><text x="2.004" y="1.67" class="eq">What</text><text x="7.014" y="1.67" class="eq">would</text><text x="13.026" y="1.67" class="eq">you</text><text x="17.034" y="1.67" class="eq">like</text><text x="22.044" y="1.67" class="eq">to</text><text x="25.05" y="1.67" class="eq">do?</text><text x="29.058" y="1.67" class="i">(Use</text><text x="34.068" y="1.67" class="i">arrow</text><text x="40.08" y="1.67" class="i">keys)</text></symbol><symbol id="14"><text y="1.67" class="er">❯</text><text x="2.004" y="1.67" class="er">Copy</text><text x="7.014" y="1.67" class="er">Stars</text></symbol><symbol id="15"><text x="2.004" y="1.67" class="i">──────────────</text></symbol><symbol id="16"><text x="2.004" y="1.67" class="i">Settings</text></symbol><symbol id="17"><text x="2.004" y="1.67" class="i">Exit</text></symbol><symbol id="18"><text y="1.67" class="f">~</text></symbol><symbol id="a"><path fill="transparent" d="M0 0h110v25H0z"/></symbol><symbol id="b"><path fill="#6f7683" d="M0 0h1.102v2.171H0z"/></symbol></defs><path class="a" d="M0 0h110v54.275H0z"/><g style="animation-duration:10.304009s;animation-iteration-count:infinite;animation-name:eu;animation-timing-function:steps(1,end)"><svg width="5060"><svg><use xlink:href="#a"/><use xlink:href="#b" x="-.004"/></svg><svg x="110"><use xlink:href="#a"/><use xlink:href="#b" x="-.004"/></svg><svg x="220"><use xlink:href="#a"/><use xlink:href="#b" x="-.004"/></svg><svg x="330"><use xlink:href="#a"/><use xlink:href="#b" x="1.996" y="4.317"/><use xlink:href="#1" y="2.171"/><use xlink:href="#2" y="4.342"/></svg><svg x="440"><use xlink:href="#a"/><use xlink:href="#b" x="1.996" y="4.317"/><use xlink:href="#1" y="2.171"/><use xlink:href="#2" y="4.342"/></svg><svg x="550"><use xlink:href="#a"/><use xlink:href="#b" x="2.996" y="4.317"/><use xlink:href="#1" y="2.171"/><text y="6.012" class="h">▶</text><text x="2.004" y="6.012" class="i">s</text></svg><svg x="660"><use xlink:href="#a"/><use xlink:href="#b" x="3.996" y="4.317"/><use xlink:href="#1" y="2.171"/><text y="6.012" class="h">▶</text><text x="2.004" y="6.012" class="i">st</text></svg><svg x="770"><use xlink:href="#a"/><use xlink:href="#b" x="4.996" y="4.317"/><use xlink:href="#1" y="2.171"/><text y="6.012" class="h">▶</text><text x="2.004" y="6.012" class="i">sta</text></svg><svg x="880"><use xlink:href="#a"/><use xlink:href="#b" x="5.996" y="4.317"/><use xlink:href="#1" y="2.171"/><text y="6.012" class="h">▶</text><text x="2.004" y="6.012" class="i">star</text></svg><svg x="990"><use xlink:href="#a"/><use xlink:href="#b" x="6.996" y="4.317"/><use xlink:href="#1" y="2.171"/><text y="6.012" class="h">▶</text><text x="2.004" y="6.012" class="i">star-</text></svg><svg x="1100"><use xlink:href="#a"/><use xlink:href="#b" x="7.996" y="4.317"/><use xlink:href="#1" y="2.171"/><text y="6.012" class="h">▶</text><text x="2.004" y="6.012" class="i">star-t</text></svg><svg x="1210"><use xlink:href="#a"/><use xlink:href="#b" x="8.996" y="4.317"/><use xlink:href="#1" y="2.171"/><text y="6.012" class="h">▶</text><text x="2.004" y="6.012" class="i">star-tr</text></svg><svg x="1320"><use xlink:href="#a"/><use xlink:href="#b" x="9.996" y="4.317"/><use xlink:href="#1" y="2.171"/><text y="6.012" class="h">▶</text><text x="2.004" y="6.012" class="i">star-tra</text></svg><svg x="1430"><use xlink:href="#a"/><use xlink:href="#b" x="10.996" y="4.317"/><use xlink:href="#1" y="2.171"/><text y="6.012" class="h">▶</text><text x="2.004" y="6.012" class="i">star-tran</text></svg><svg x="1540"><use xlink:href="#a"/><use xlink:href="#b" x="11.996" y="4.317"/><use xlink:href="#1" y="2.171"/><text y="6.012" class="h">▶</text><text x="2.004" y="6.012" class="i">star-trans</text></svg><svg x="1650"><use xlink:href="#a"/><use xlink:href="#b" x="12.996" y="4.317"/><use xlink:href="#1" y="2.171"/><text y="6.012" class="h">▶</text><text x="2.004" y="6.012" class="i">star-transf</text></svg><svg x="1760"><use xlink:href="#a"/><use xlink:href="#b" x="13.996" y="4.317"/><use xlink:href="#1" y="2.171"/><text y="6.012" class="h">▶</text><text x="2.004" y="6.012" class="i">star-transfe</text></svg><svg x="1870"><use xlink:href="#a"/><use xlink:href="#b" x="14.996" y="4.317"/><use xlink:href="#1" y="2.171"/><use xlink:href="#3" y="4.342"/></svg><svg x="1980"><use xlink:href="#a"/><use xlink:href="#b" x="14.996" y="4.317"/><use xlink:href="#1" y="2.171"/><use xlink:href="#3" y="4.342"/></svg><svg x="2090"><use xlink:href="#a"/><use xlink:href="#b" x="-.004" y="6.488"/><use xlink:href="#1" y="2.171"/><use xlink:href="#3" y="4.342"/></svg><svg x="2200"><use xlink:href="#a"/><use xlink:href="#b" x="-.004" y="6.488"/><use xlink:href="#1" y="2.171"/><use xlink:href="#3" y="4.342"/></svg><svg x="2310"><use xlink:href="#a"/><use xlink:href="#1" y="2.171"/><use xlink:href="#3" y="4.342"/></svg><svg x="2420"><use xlink:href="#a"/><use xlink:href="#1" y="2.171"/><use xlink:href="#3" y="4.342"/><text y="8.183" class="er">⠋</text><text x="2.004" y="8.183" class="i">Testing</text><text x="10.02" y="8.183" class="i">connection</text><text x="21.042" y="8.183" class="i">...</text></svg><svg x="2530"><use xlink:href="#a"/><use xlink:href="#1" y="2.171"/><use xlink:href="#3" y="4.342"/></svg><svg x="2640"><use xlink:href="#a"/><use xlink:href="#1" y="2.171"/><use xlink:href="#3" y="4.342"/></svg><svg x="2750"><use xlink:href="#a"/><use xlink:href="#b" x="-.004" y="6.488"/><use xlink:href="#1" y="2.171"/><use xlink:href="#3" y="4.342"/></svg><svg x="2860"><use xlink:href="#a"/><use xlink:href="#b" x="-.004" y="8.659"/><use xlink:href="#1" y="2.171"/><use xlink:href="#3" y="4.342"/><use xlink:href="#4" y="6.513"/></svg><svg x="2970"><use xlink:href="#a"/><use xlink:href="#b" x="12.996" y="13.001"/><use xlink:href="#1" y="2.171"/><use xlink:href="#3" y="4.342"/><use xlink:href="#4" y="6.513"/><use xlink:href="#5" y="8.684"/><use xlink:href="#6" y="10.855"/><text x="7.014" y="14.696" class="k">│</text><text x="10.02" y="14.696" class="G">/</text><text x="12.024" y="14.696" class="H">_</text></svg><svg x="3080"><use xlink:href="#a"/><use xlink:href="#b" x="78.996" y="13.001"/><use xlink:href="#1" y="2.171"/><use xlink:href="#3" y="4.342"/><use xlink:href="#4" y="6.513"/><use xlink:href="#5" y="8.684"/><use xlink:href="#6" y="10.855"/><text x="7.014" y="14.696" class="k">│</text><text x="10.02" y="14.696" class="G">/</text><text x="12.024" y="14.696" class="H">_</text><text x="13.026" y="14.696" class="I">_</text><text x="14.028" y="14.696" class="J">_</text><text x="15.03" y="14.696" class="K">(</text><text x="16.032" y="14.696" class="L">_</text><text x="17.034" y="14.696" class="M">)</text><text x="19.038" y="14.696" class="N">|</text><text x="20.04" y="14.696" class="O">_</text><text x="21.042" y="14.696" class="P">|</text><text x="23.046" y="14.696" class="Q">|</text><text x="25.05" y="14.696" class="R">|</text><text x="27.054" y="14.696" class="S">|</text><text x="28.056" y="14.696" class="T">_</text><text x="32.064" y="14.696" class="U">_</text><text x="33.066" y="14.696" class="V">|</text><text x="35.07" y="14.696" class="W">|</text><text x="36.072" y="14.696" class="X">_</text><text x="37.074" y="14.696" class="Y">_</text><text x="41.082" y="14.696" class="Z">/</text><text x="43.086" y="14.696" class="aa">_</text><text x="44.088" y="14.696" class="ab">_</text><text x="45.09" y="14.696" class="ac">_</text><text x="46.092" y="14.696" class="ad">|</text><text x="47.094" y="14.696" class="ae">|</text><text x="49.098" y="14.696" class="af">|</text><text x="50.1" y="14.696" class="ag">_</text><text x="52.104" y="14.696" class="ah">_</text><text x="53.106" y="14.696" class="ai">_</text><text x="55.11" y="14.696" class="aj">_</text><text x="57.114" y="14.696" class="ak">_</text><text x="59.118" y="14.696" class="al">_</text><text x="60.12" y="14.696" class="am">_</text><text x="63.126" y="14.696" class="an">|</text><text x="64.128" y="14.696" class="ao">_</text><text x="68.136" y="14.696" class="ap">_</text><text x="69.138" y="14.696" class="aq">|</text><text x="71.142" y="14.696" class="ar">_</text><text x="72.144" y="14.696" class="as">_</text><text x="74.148" y="14.696" class="at">_</text><text x="75.15" y="14.696" class="au">_</text><text x="77.154" y="14.696" class="av">_</text></svg><svg x="3190"><use xlink:href="#a"/><use xlink:href="#b" x="46.996" y="15.172"/><use xlink:href="#1" y="2.171"/><use xlink:href="#3" y="4.342"/><use xlink:href="#4" y="6.513"/><use xlink:href="#5" y="8.684"/><use xlink:href="#6" y="10.855"/><use xlink:href="#7" y="13.026"/><text x="7.014" y="16.867" class="k">│</text><text x="9.018" y="16.867" class="aL">|</text><text x="11.022" y="16.867" class="aM">|</text><text x="14.028" y="16.867" class="aN">_</text><text x="15.03" y="16.867" class="aO">|</text><text x="17.034" y="16.867" class="aP">|</text><text x="19.038" y="16.867" class="aQ">_</text><text x="20.04" y="16.867" class="aR">_</text><text x="21.042" y="16.867" class="aS">|</text><text x="23.046" y="16.867" class="aT">|</text><text x="24.048" y="16.867" class="aU">_</text><text x="25.05" y="16.867" class="aV">|</text><text x="27.054" y="16.867" class="aW">|</text><text x="29.058" y="16.867" class="aX">|</text><text x="31.062" y="16.867" class="aY">|</text><text x="33.066" y="16.867" class="aZ">|</text><text x="35.07" y="16.867" class="ba">&apos;</text><text x="36.072" y="16.867" class="bb">_</text><text x="38.076" y="16.867" class="bc">\</text><text x="41.082" y="16.867" class="bd">\</text><text x="42.084" y="16.867" class="be">_</text><text x="43.086" y="16.867" class="bf">_</text><text x="44.088" y="16.867" class="bg">_</text><text x="46.092" y="16.867" class="bh">\</text></svg><svg x="3300"><use xlink:href="#a"/><use xlink:href="#b" x="11.996" y="17.343"/><use xlink:href="#1" y="2.171"/><use xlink:href="#3" y="4.342"/><use xlink:href="#4" y="6.513"/><use xlink:href="#5" y="8.684"/><use xlink:href="#6" y="10.855"/><use xlink:href="#7" y="13.026"/><use xlink:href="#8" y="15.197"/><text x="7.014" y="19.038" class="k">│</text><text x="9.018" y="19.038" class="bT">|</text><text x="11.022" y="19.038" class="bU">|</text></svg><svg x="3410"><use xlink:href="#a"/><use xlink:href="#b" x="83.996" y="17.343"/><use xlink:href="#1" y="2.171"/><use xlink:href="#3" y="4.342"/><use xlink:href="#4" y="6.513"/><use xlink:href="#5" y="8.684"/><use xlink:href="#6" y="10.855"/><use xlink:href="#7" y="13.026"/><use xlink:href="#8" y="15.197"/><text x="7.014" y="19.038" class="k">│</text><text x="9.018" y="19.038" class="bT">|</text><text x="11.022" y="19.038" class="bU">|</text><text x="12.024" y="19.038" class="bV">_</text><text x="13.026" y="19.038" class="bW">|</text><text x="15.03" y="19.038" class="bX">|</text><text x="17.034" y="19.038" class="bY">|</text><text x="19.038" y="19.038" class="bZ">|</text><text x="20.04" y="19.038" class="ca">_</text><text x="21.042" y="19.038" class="cb">|</text><text x="24.048" y="19.038" class="cc">_</text><text x="27.054" y="19.038" class="cd">|</text><text x="29.058" y="19.038" class="ce">|</text><text x="30.06" y="19.038" class="cf">_</text><text x="31.062" y="19.038" class="cg">|</text><text x="33.066" y="19.038" class="ch">|</text><text x="35.07" y="19.038" class="ci">|</text><text x="36.072" y="19.038" class="cj">_</text><text x="37.074" y="19.038" class="ck">)</text><text x="39.078" y="19.038" class="cl">|</text><text x="42.084" y="19.038" class="cm">_</text><text x="43.086" y="19.038" class="cn">_</text><text x="44.088" y="19.038" class="co">_</text><text x="45.09" y="19.038" class="cp">)</text><text x="47.094" y="19.038" class="cq">|</text><text x="49.098" y="19.038" class="cr">|</text><text x="50.1" y="19.038" class="cs">|</text><text x="52.104" y="19.038" class="ct">(</text><text x="53.106" y="19.038" class="cu">_</text><text x="54.108" y="19.038" class="cv">|</text><text x="56.112" y="19.038" class="cw">|</text><text x="58.116" y="19.038" class="cx">|</text><text x="65.13" y="19.038" class="cy">|</text><text x="67.134" y="19.038" class="cz">|</text><text x="68.136" y="19.038" class="cA">|</text><text x="70.14" y="19.038" class="cB">|</text><text x="72.144" y="19.038" class="cC">|</text><text x="74.148" y="19.038" class="cD">(</text><text x="75.15" y="19.038" class="cE">_</text><text x="76.152" y="19.038" class="cF">|</text><text x="78.156" y="19.038" class="cG">|</text><text x="80.16" y="19.038" class="cH">|</text><text x="82.164" y="19.038" class="cI">|</text></svg><svg x="3520"><use xlink:href="#a"/><use xlink:href="#b" x="41.996" y="19.514"/><use xlink:href="#1" y="2.171"/><use xlink:href="#3" y="4.342"/><use xlink:href="#4" y="6.513"/><use xlink:href="#5" y="8.684"/><use xlink:href="#6" y="10.855"/><use xlink:href="#7" y="13.026"/><use xlink:href="#8" y="15.197"/><use xlink:href="#9" y="17.368"/><text x="7.014" y="21.209" class="k">│</text><text x="10.02" y="21.209" class="cT">\</text><text x="11.022" y="21.209" class="cU">_</text><text x="12.024" y="21.209" class="cV">_</text><text x="13.026" y="21.209" class="cW">_</text><text x="14.028" y="21.209" class="cX">_</text><text x="15.03" y="21.209" class="cY">|</text><text x="16.032" y="21.209" class="cZ">_</text><text x="17.034" y="21.209" class="da">|</text><text x="18.036" y="21.209" class="db">\</text><text x="19.038" y="21.209" class="dc">_</text><text x="20.04" y="21.209" class="dd">_</text><text x="21.042" y="21.209" class="de">|</text><text x="22.044" y="21.209" class="df">_</text><text x="23.046" y="21.209" class="dg">|</text><text x="25.05" y="21.209" class="dh">|</text><text x="26.052" y="21.209" class="di">_</text><text x="27.054" y="21.209" class="dj">|</text><text x="28.056" y="21.209" class="dk">\</text><text x="29.058" y="21.209" class="dl">_</text><text x="30.06" y="21.209" class="dm">_</text><text x="31.062" y="21.209" class="dn">,</text><text x="32.064" y="21.209" class="do">_</text><text x="33.066" y="21.209" class="dp">|</text><text x="34.068" y="21.209" class="dq">_</text><text x="35.07" y="21.209" class="dr">.</text><text x="36.072" y="21.209" class="ds">_</text><text x="37.074" y="21.209" class="dt">_</text><text x="38.076" y="21.209" class="du">/</text><text x="41.082" y="21.209" class="dv">|</text></svg><svg x="3630"><use xlink:href="#a"/><use xlink:href="#b" x="93.996" y="19.514"/><use xlink:href="#1" y="2.171"/><use xlink:href="#3" y="4.342"/><use xlink:href="#4" y="6.513"/><use xlink:href="#5" y="8.684"/><use xlink:href="#6" y="10.855"/><use xlink:href="#7" y="13.026"/><use xlink:href="#8" y="15.197"/><use xlink:href="#9" y="17.368"/><text x="7.014" y="21.209" class="k">│</text><text x="10.02" y="21.209" class="cT">\</text><text x="11.022" y="21.209" class="cU">_</text><text x="12.024" y="21.209" class="cV">_</text><text x="13.026" y="21.209" class="cW">_</text><text x="14.028" y="21.209" class="cX">_</text><text x="15.03" y="21.209" class="cY">|</text><text x="16.032" y="21.209" class="cZ">_</text><text x="17.034" y="21.209" class="da">|</text><text x="18.036" y="21.209" class="db">\</text><text x="19.038" y="21.209" class="dc">_</text><text x="20.04" y="21.209" class="dd">_</text><text x="21.042" y="21.209" class="de">|</text><text x="22.044" y="21.209" class="df">_</text><text x="23.046" y="21.209" class="dg">|</text><text x="25.05" y="21.209" class="dh">|</text><text x="26.052" y="21.209" class="di">_</text><text x="27.054" y="21.209" class="dj">|</text><text x="28.056" y="21.209" class="dk">\</text><text x="29.058" y="21.209" class="dl">_</text><text x="30.06" y="21.209" class="dm">_</text><text x="31.062" y="21.209" class="dn">,</text><text x="32.064" y="21.209" class="do">_</text><text x="33.066" y="21.209" class="dp">|</text><text x="34.068" y="21.209" class="dq">_</text><text x="35.07" y="21.209" class="dr">.</text><text x="36.072" y="21.209" class="ds">_</text><text x="37.074" y="21.209" class="dt">_</text><text x="38.076" y="21.209" class="du">/</text><text x="41.082" y="21.209" class="dv">|</text><text x="42.084" y="21.209" class="dw">_</text><text x="43.086" y="21.209" class="dx">_</text><text x="44.088" y="21.209" class="dy">_</text><text x="45.09" y="21.209" class="dz">_</text><text x="46.092" y="21.209" class="dA">/</text><text x="48.096" y="21.209" class="dB">\</text><text x="49.098" y="21.209" class="dC">_</text><text x="50.1" y="21.209" class="dD">_</text><text x="51.102" y="21.209" class="dE">\</text><text x="52.104" y="21.209" class="dF">_</text><text x="53.106" y="21.209" class="dG">_</text><text x="54.108" y="21.209" class="dH">,</text><text x="55.11" y="21.209" class="dI">_</text><text x="56.112" y="21.209" class="dJ">|</text><text x="57.114" y="21.209" class="dK">_</text><text x="58.116" y="21.209" class="dL">|</text><text x="65.13" y="21.209" class="dM">|</text><text x="66.132" y="21.209" class="dN">_</text><text x="67.134" y="21.209" class="dO">|</text><text x="68.136" y="21.209" class="dP">|</text><text x="69.138" y="21.209" class="dQ">_</text><text x="70.14" y="21.209" class="dR">|</text><text x="73.146" y="21.209" class="dS">\</text><text x="74.148" y="21.209" class="dT">_</text><text x="75.15" y="21.209" class="dU">_</text><text x="76.152" y="21.209" class="dV">,</text><text x="77.154" y="21.209" class="dW">_</text><text x="78.156" y="21.209" class="dX">|</text><text x="79.158" y="21.209" class="dY">_</text><text x="80.16" y="21.209" class="dZ">|</text><text x="82.164" y="21.209" class="ea">|</text><text x="83.166" y="21.209" class="eb">_</text><text x="84.168" y="21.209" class="ec">|</text><text x="85.17" y="21.209" class="ed">_</text><text x="86.172" y="21.209" class="ee">_</text><text x="87.174" y="21.209" class="ef">_</text><text x="88.176" y="21.209" class="eg">/</text><text x="89.178" y="21.209" class="eh">_</text><text x="90.18" y="21.209" class="ei">|</text><text x="93.186" y="21.209" class="ej">\</text></svg><svg x="3740"><use xlink:href="#a"/><use xlink:href="#b" x="-.004" y="26.027"/><use xlink:href="#1" y="2.171"/><use xlink:href="#3" y="4.342"/><use xlink:href="#4" y="6.513"/><use xlink:href="#5" y="8.684"/><use xlink:href="#6" y="10.855"/><use xlink:href="#7" y="13.026"/><use xlink:href="#8" y="15.197"/><use xlink:href="#9" y="17.368"/><use xlink:href="#10" y="19.539"/><use xlink:href="#11" y="21.71"/><use xlink:href="#12" y="23.881"/></svg><svg x="3850"><use xlink:href="#a"/><use xlink:href="#1" y="2.171"/><use xlink:href="#3" y="4.342"/><use xlink:href="#4" y="6.513"/><use xlink:href="#5" y="8.684"/><use xlink:href="#6" y="10.855"/><use xlink:href="#7" y="13.026"/><use xlink:href="#8" y="15.197"/><use xlink:href="#9" y="17.368"/><use xlink:href="#10" y="19.539"/><use xlink:href="#11" y="21.71"/><use xlink:href="#12" y="23.881"/></svg><svg x="3960"><use xlink:href="#a"/><use xlink:href="#1" y="2.171"/><use xlink:href="#3" y="4.342"/><use xlink:href="#4" y="6.513"/><use xlink:href="#5" y="8.684"/><use xlink:href="#6" y="10.855"/><use xlink:href="#7" y="13.026"/><use xlink:href="#8" y="15.197"/><use xlink:href="#9" y="17.368"/><use xlink:href="#10" y="19.539"/><use xlink:href="#11" y="21.71"/><use xlink:href="#12" y="23.881"/><use xlink:href="#13" y="26.052"/><use xlink:href="#14" y="28.223"/><use xlink:href="#15" y="30.394"/><use xlink:href="#16" y="32.565"/><use xlink:href="#17" y="34.736"/></svg><svg x="4070"><use xlink:href="#a"/><use xlink:href="#1" y="2.171"/><use xlink:href="#3" y="4.342"/><use xlink:href="#4" y="6.513"/><use xlink:href="#5" y="8.684"/><use xlink:href="#6" y="10.855"/><use xlink:href="#7" y="13.026"/><use xlink:href="#8" y="15.197"/><use xlink:href="#9" y="17.368"/><use xlink:href="#10" y="19.539"/><use xlink:href="#11" y="21.71"/><use xlink:href="#12" y="23.881"/><use xlink:href="#13" y="26.052"/><use xlink:href="#14" y="28.223"/><use xlink:href="#15" y="30.394"/><use xlink:href="#16" y="32.565"/><use xlink:href="#17" y="34.736"/></svg><svg x="4180"><use xlink:href="#a"/><use xlink:href="#1" y="2.171"/><use xlink:href="#3" y="4.342"/><use xlink:href="#4" y="6.513"/><use xlink:href="#5" y="8.684"/><use xlink:href="#6" y="10.855"/><use xlink:href="#7" y="13.026"/><use xlink:href="#8" y="15.197"/><use xlink:href="#9" y="17.368"/><use xlink:href="#10" y="19.539"/><use xlink:href="#11" y="21.71"/><use xlink:href="#12" y="23.881"/><use xlink:href="#13" y="26.052"/><use xlink:href="#14" y="28.223"/><use xlink:href="#15" y="30.394"/><use xlink:href="#16" y="32.565"/><use xlink:href="#17" y="34.736"/></svg><svg x="4290"><use xlink:href="#a"/><use xlink:href="#1" y="2.171"/><use xlink:href="#3" y="4.342"/><use xlink:href="#4" y="6.513"/><use xlink:href="#5" y="8.684"/><use xlink:href="#6" y="10.855"/><use xlink:href="#7" y="13.026"/><use xlink:href="#8" y="15.197"/><use xlink:href="#9" y="17.368"/><use xlink:href="#10" y="19.539"/><use xlink:href="#11" y="21.71"/><use xlink:href="#12" y="23.881"/><use xlink:href="#13" y="26.052"/><use xlink:href="#14" y="28.223"/><use xlink:href="#15" y="30.394"/><use xlink:href="#16" y="32.565"/><use xlink:href="#17" y="34.736"/></svg><svg x="4400"><use xlink:href="#a"/><use xlink:href="#b" x="-.004" y="36.882"/><use xlink:href="#1" y="2.171"/><use xlink:href="#3" y="4.342"/><use xlink:href="#4" y="6.513"/><use xlink:href="#5" y="8.684"/><use xlink:href="#6" y="10.855"/><use xlink:href="#7" y="13.026"/><use xlink:href="#8" y="15.197"/><use xlink:href="#9" y="17.368"/><use xlink:href="#10" y="19.539"/><use xlink:href="#11" y="21.71"/><use xlink:href="#12" y="23.881"/><use xlink:href="#13" y="26.052"/><use xlink:href="#14" y="28.223"/><use xlink:href="#15" y="30.394"/><use xlink:href="#16" y="32.565"/><use xlink:href="#17" y="34.736"/></svg><svg x="4510"><use xlink:href="#a"/><use xlink:href="#b" x="-.004" y="36.882"/><use xlink:href="#1" y="2.171"/><use xlink:href="#3" y="4.342"/><use xlink:href="#4" y="6.513"/><use xlink:href="#5" y="8.684"/><use xlink:href="#6" y="10.855"/><use xlink:href="#7" y="13.026"/><use xlink:href="#8" y="15.197"/><use xlink:href="#9" y="17.368"/><use xlink:href="#10" y="19.539"/><use xlink:href="#11" y="21.71"/><use xlink:href="#12" y="23.881"/><use xlink:href="#13" y="26.052"/><use xlink:href="#14" y="28.223"/><use xlink:href="#15" y="30.394"/><use xlink:href="#16" y="32.565"/><use xlink:href="#17" y="34.736"/></svg><svg x="4620"><use xlink:href="#a"/><use xlink:href="#b" x="-.004" y="36.882"/><use xlink:href="#1" y="2.171"/><use xlink:href="#3" y="4.342"/><use xlink:href="#4" y="6.513"/><use xlink:href="#5" y="8.684"/><use xlink:href="#6" y="10.855"/><use xlink:href="#7" y="13.026"/><use xlink:href="#8" y="15.197"/><use xlink:href="#9" y="17.368"/><use xlink:href="#10" y="19.539"/><use xlink:href="#11" y="21.71"/><use xlink:href="#12" y="23.881"/><use xlink:href="#13" y="26.052"/><use xlink:href="#14" y="28.223"/><use xlink:href="#15" y="30.394"/><use xlink:href="#16" y="32.565"/><use xlink:href="#17" y="34.736"/></svg><svg x="4730"><use xlink:href="#a"/><use xlink:href="#b" x="1.996" y="41.224"/><use xlink:href="#1" y="2.171"/><use xlink:href="#3" y="4.342"/><use xlink:href="#4" y="6.513"/><use xlink:href="#5" y="8.684"/><use xlink:href="#6" y="10.855"/><use xlink:href="#7" y="13.026"/><use xlink:href="#8" y="15.197"/><use xlink:href="#9" y="17.368"/><use xlink:href="#10" y="19.539"/><use xlink:href="#11" y="21.71"/><use xlink:href="#12" y="23.881"/><use xlink:href="#13" y="26.052"/><use xlink:href="#14" y="28.223"/><use xlink:href="#15" y="30.394"/><use xlink:href="#16" y="32.565"/><use xlink:href="#17" y="34.736"/><use xlink:href="#18" y="39.078"/><use xlink:href="#2" y="41.249"/></svg><svg x="4840"><use xlink:href="#a"/><use xlink:href="#b" x="1.996" y="41.224"/><use xlink:href="#1" y="2.171"/><use xlink:href="#3" y="4.342"/><use xlink:href="#4" y="6.513"/><use xlink:href="#5" y="8.684"/><use xlink:href="#6" y="10.855"/><use xlink:href="#7" y="13.026"/><use xlink:href="#8" y="15.197"/><use xlink:href="#9" y="17.368"/><use xlink:href="#10" y="19.539"/><use xlink:href="#11" y="21.71"/><use xlink:href="#12" y="23.881"/><use xlink:href="#13" y="26.052"/><use xlink:href="#14" y="28.223"/><use xlink:href="#15" y="30.394"/><use xlink:href="#16" y="32.565"/><use xlink:href="#17" y="34.736"/><use xlink:href="#18" y="39.078"/><use xlink:href="#2" y="41.249"/></svg><svg x="4950"><use xlink:href="#a"/><use xlink:href="#b" x="-.004" y="43.395"/><use xlink:href="#1" y="2.171"/><use xlink:href="#3" y="4.342"/><use xlink:href="#4" y="6.513"/><use xlink:href="#5" y="8.684"/><use xlink:href="#6" y="10.855"/><use xlink:href="#7" y="13.026"/><use xlink:href="#8" y="15.197"/><use xlink:href="#9" y="17.368"/><use xlink:href="#10" y="19.539"/><use xlink:href="#11" y="21.71"/><use xlink:href="#12" y="23.881"/><use xlink:href="#13" y="26.052"/><use xlink:href="#14" y="28.223"/><use xlink:href="#15" y="30.394"/><use xlink:href="#16" y="32.565"/><use xlink:href="#17" y="34.736"/><use xlink:href="#18" y="39.078"/><use xlink:href="#2" y="41.249"/></svg></svg></g></g></svg></svg>