<svg xmlns="http://www.w3.org/2000/svg" viewBox="0 0 550 360"><defs><style>.cls-1{fill:#feea3f;}.cls-2{fill:#fff;}.cls-3{fill:none;stroke:#6154a4;stroke-miterlimit:10;stroke-width:7px;}.cls-4{fill:#6154a4;}.cls-5{font-size:55px;font-family:OpenSans-Bold, Open Sans;font-weight:700;}</style></defs><title>Artboard 1</title><g id="Hexagon"><path class="cls-1" d="M265.84,81.35l-39.89,23A20.31,20.31,0,0,0,215.8,122V168A20.31,20.31,0,0,0,226,185.62l39.89,23a20.32,20.32,0,0,0,20.32,0l39.89-23A20.31,20.31,0,0,0,336.2,168V122a20.31,20.31,0,0,0-10.15-17.59l-39.89-23A20.32,20.32,0,0,0,265.84,81.35Z"/></g><g id="Inner_Circle" data-name="Inner Circle"><ellipse class="cls-2" cx="276" cy="144.5" rx="30" ry="30.5"/></g><g id="Arrows"><g id="Right"><line class="cls-3" x1="258" y1="154.5" x2="277.93" y2="154.5"/><polygon class="cls-4" points="274.87 164.97 293 154.5 274.87 144.03 274.87 164.97"/></g><g id="Left"><line class="cls-3" x1="292" y1="129.5" x2="272.07" y2="129.5"/><polygon class="cls-4" points="275.13 119.03 257 129.5 275.13 139.97 275.13 119.03"/></g></g><g id="Text"><text class="cls-5" transform="translate(95.52 263.67)">Star Transfer</text></g></svg>