<?xml version="1.0" standalone="no"?>
<!DOCTYPE svg PUBLIC "-//W3C//DTD SVG 20010904//EN"
 "http://www.w3.org/TR/2001/REC-SVG-20010904/DTD/svg10.dtd">
<svg version="1.0" xmlns="http://www.w3.org/2000/svg"
 width="150.000000pt" height="150.000000pt" viewBox="0 0 16 16"
 preserveAspectRatio="xMidYMid meet">
<metadata>
Created by potrace 1.11, written by Peter Selinger 2001-2013
</metadata>
<g transform="translate(0.000000,150.000000) scale(0.100000,-0.100000)"
fill="#000000" stroke="none">
<path d="M680 1491 c-14 -5 -135 -72 -270 -150 -258 -148 -310 -190 -330 -260
-13 -49 -13 -615 1 -664 18 -68 79 -115 344 -268 l250 -144 75 0 75 0 250 145
c137 79 265 158 284 174 68 61 71 74 71 426 0 351 -2 363 -71 426 -19 17 -146
95 -283 174 -236 135 -253 143 -310 146 -34 2 -72 0 -86 -5z m218 -425 c70
-35 128 -95 161 -165 22 -47 26 -70 26 -146 0 -76 -4 -99 -26 -145 -33 -70
-99 -136 -169 -169 -46 -22 -69 -26 -140 -26 -71 0 -94 4 -140 26 -69 33 -133
97 -168 169 -23 47 -27 67 -27 145 0 76 4 99 26 146 42 88 123 159 219 190 14
5 61 7 105 5 63 -2 91 -8 133 -30z"/>
<path d="M638 991 c-54 -32 -100 -60 -104 -63 -4 -5 200 -128 212 -128 2 0 4
18 4 40 l0 40 95 0 95 0 0 45 0 45 -95 0 -95 0 0 40 c0 22 -3 40 -7 39 -5 0
-52 -26 -105 -58z"/>
<path d="M730 731 l0 -41 -95 0 -95 0 0 -45 0 -45 95 0 95 0 0 -40 c0 -22 3
-40 6 -40 5 0 103 55 182 103 l33 19 -53 32 c-29 18 -79 47 -110 65 l-58 32 0
-40z"/>
</g>
</svg>
