<?xml version="1.0" standalone="no"?>
<!DOCTYPE svg PUBLIC "-//W3C//DTD SVG 20010904//EN"
 "http://www.w3.org/TR/2001/REC-SVG-20010904/DTD/svg10.dtd">
<svg version="1.0" xmlns="http://www.w3.org/2000/svg"
 width="150.000000pt" height="150.000000pt" viewBox="0 0 150.000000 150.000000"
 preserveAspectRatio="xMidYMid meet">
<metadata>
Created by potrace 1.11, written by Peter Selinger 2001-2013
</metadata>
<g transform="translate(0.000000,150.000000) scale(0.100000,-0.100000)"
fill="#000000" stroke="none">
<path d="M650 1477 c-142 -73 -481 -275 -512 -305 -64 -61 -68 -87 -68 -429 0
-285 1 -306 20 -347 35 -73 34 -72 328 -242 56 -32 110 -63 120 -69 9 -5 43
-25 75 -44 44 -25 75 -35 120 -38 75 -6 78 -5 367 161 277 160 276 159 310
231 18 37 20 65 20 355 0 286 -2 319 -19 355 -33 71 -50 83 -426 296 -163 93
-168 95 -235 98 -41 1 -67 -4 -100 -22z"/>
</g>
</svg>
